# xmcd
#
# Track frame offsets: 
#        150
#        33300
#        53750
#        94243
#        141224
#        184951
#        225094
#
# Disc length: 3508 seconds
#
# Revision: 0
# Processed by: cddbd v1.5.2PL0 Copyright (c) Steve Scherf et al.
# Submitted via: ExactAudioCopy v1.0b3
#
DISCID=530db207
DTITLE=Jea-Paul Amouroux - Orchestral Boogie Vol. 3
DYEAR=1900
DGENRE=
TTITLE0=Pinetop's Boogie Woogie
TTITLE1=I'm Lost Without You
TTITLE2=Lady Be Good
TTITLE3=Boogie Woogie for little Véro
TTITLE4=Blues for Véronique and Sam
TTITLE5=Central Avenue Breakdown
TTITLE6=Boogie for Jay McShann
EXTD=
EXTT0=
EXTT1=
EXTT2=
EXTT3=
EXTT4=
EXTT5=
EXTT6=
PLAYORDER=
